<svg xmlns="http://www.w3.org/2000/svg" viewBox="0 0 1280 320" width="1280" height="320" role="img" aria-label="Runtipi App Store"><title>Runtipi App Store</title><rect width="1280" height="320" rx="24" fill="#17153a"/><g transform="rotate(-14 938.0 98.0)"><rect x="906" y="66" width="64" height="64" rx="15.3" fill="#3b82f6"/><circle cx="938.0" cy="98.0" r="14.4" fill="#fff"/></g><g transform="rotate(6 994.0 76.0)"><rect x="962" y="44" width="64" height="64" rx="15.3" fill="#f59e0b"/><path fill="#fff" d="M982.8,61.6L1010.0,76.0L982.8,90.4Z"/></g><g transform="rotate(-4 1056.0 90.0)"><rect x="1024" y="58" width="64" height="64" rx="15.3" fill="#10b981"/><rect x="1041.6" y="75.6" width="28.8" height="28.8" rx="4.8" fill="#fff"/></g><g transform="rotate(14 1112.0 104.0)"><rect x="1080" y="72" width="64" height="64" rx="15.3" fill="#ec4899"/><rect x="1097.6" y="105.6" width="5.7" height="12.8" rx="2.8" fill="#fff"/><rect x="1108.1" y="89.6" width="5.7" height="28.8" rx="2.8" fill="#fff"/><rect x="1118.7" y="99.2" width="5.7" height="19.2" rx="2.8" fill="#fff"/></g><path d="M930,130 C930,70 1000,70 1000,130 M1010,130 C1010,70 1080,70 1080,130" stroke="#8b5a2b" stroke-width="8" fill="none"/><path fill="#d9a766" d="M880,122 H1130 L1146,296 H864 Z"/><path fill="#c48f4f" d="M880,122 H1130 L1132,140 H878 Z"/><path d="M997.8,176.4 L1019.4,147.3 M1012.2,176.4 L990.6,147.3 M1005,174.4 L1007.4,143.2" stroke="#5b3a1d" stroke-width="4" stroke-linecap="round"/><path fill="#fff7e6" d="M945.0,268 L1005,168.1 L1065.0,268 Z"/><path fill="#6d28d9" d="M963.0,236.8 L970.2,224.3 L1039.8,224.3 L1047.0,236.8 Z"/><path fill="#3b2a1a" d="M988.2,268 Q1002.6,236.8 1005,232.6 Q1007.4,236.8 1021.8,268 Z"/><path fill="#ffffff"  d="M120.4 166 108.7 144.6H104.3V166H91.5V112.2H112.1Q115.9 112.2 119.6 113Q123.3 113.8 126.2 115.7Q129.2 117.6 130.9 120.7Q132.7 123.8 132.7 128.5Q132.7 133.9 129.7 137.7Q126.7 141.4 121.5 143L135.6 166ZM119.8 128.7Q119.8 126.8 119 125.6Q118.2 124.4 117 123.8Q115.7 123.1 114.2 122.9Q112.6 122.7 111.2 122.7H104.2V135.2H110.4Q112 135.2 113.7 135Q115.3 134.7 116.7 134Q118.1 133.3 118.9 132Q119.8 130.7 119.8 128.7ZM166.2 166V160.8H166Q165.3 162 164.2 163.2Q163.1 164.3 161.7 165.2Q160.2 166 158.4 166.5Q156.6 167.1 154.6 167.1Q150.8 167.1 148.2 165.7Q145.6 164.3 143.9 162.2Q142.3 160 141.6 157.2Q140.9 154.4 140.9 151.6V128.2H153.4V148.7Q153.4 150.3 153.6 151.7Q153.9 153.2 154.5 154.3Q155.2 155.4 156.2 156.1Q157.3 156.7 159 156.7Q162.3 156.7 164 154.3Q165.7 151.9 165.7 148.6V128.2H178.2V166ZM212.8 166V145.3Q212.8 143.7 212.5 142.3Q212.2 140.8 211.6 139.7Q211 138.6 209.9 138Q208.8 137.3 207.1 137.3Q205.5 137.3 204.2 138Q203 138.6 202.1 139.8Q201.3 140.9 200.9 142.4Q200.5 143.9 200.5 145.5V166H187.9V128.2H200V133.4H200.2Q200.8 132.2 201.9 131Q203 129.8 204.5 129Q206 128.2 207.8 127.6Q209.5 127.1 211.5 127.1Q215.3 127.1 217.9 128.5Q220.6 129.8 222.2 132Q223.9 134.2 224.6 137Q225.3 139.8 225.3 142.6V166ZM248.3 137.5V151.9Q248.3 154.6 249.3 155.9Q250.3 157.3 253 157.3Q253.9 157.3 254.9 157.1Q255.9 157 256.6 156.7L256.8 165.8Q255.5 166.2 253.5 166.6Q251.5 166.9 249.6 166.9Q245.8 166.9 243.2 166Q240.6 165 239 163.2Q237.5 161.4 236.8 159Q236.1 156.5 236.1 153.5V137.5H230V128.2H236V118.2H248.3V128.2H257.2V137.5ZM276.5 116.1Q276.5 117.5 276 118.8Q275.4 120 274.4 120.9Q273.5 121.8 272.2 122.4Q270.8 122.9 269.4 122.9Q266.3 122.9 264.3 120.9Q262.2 118.9 262.2 116.1Q262.2 114.7 262.8 113.4Q263.3 112.2 264.3 111.3Q265.3 110.4 266.6 109.8Q267.9 109.2 269.4 109.2Q270.8 109.2 272.2 109.8Q273.5 110.3 274.4 111.2Q275.4 112.1 276 113.4Q276.5 114.6 276.5 116.1ZM263.2 166V128.2H275.6V166ZM327.6 146.9Q327.6 150.9 326.4 154.5Q325.2 158.2 322.9 160.9Q320.5 163.7 317.2 165.4Q313.8 167.1 309.6 167.1Q306.1 167.1 303 165.7Q299.9 164.3 298.1 161.8H298V184.2H285.5V128.2H297.4V132.8H297.6Q299.3 130.5 302.4 128.8Q305.5 127.1 309.7 127.1Q313.8 127.1 317.1 128.7Q320.5 130.3 322.8 133Q325.1 135.8 326.4 139.4Q327.6 143 327.6 146.9ZM315.5 146.9Q315.5 145.1 315 143.4Q314.4 141.6 313.3 140.3Q312.2 138.9 310.5 138.1Q308.8 137.3 306.6 137.3Q304.5 137.3 302.8 138.1Q301.2 138.9 300 140.3Q298.8 141.7 298.2 143.4Q297.5 145.2 297.5 147Q297.5 148.8 298.2 150.6Q298.8 152.3 300 153.7Q301.2 155.1 302.8 155.9Q304.5 156.7 306.6 156.7Q308.8 156.7 310.5 155.9Q312.2 155.1 313.3 153.7Q314.4 152.3 315 150.5Q315.5 148.7 315.5 146.9ZM349 116.1Q349 117.5 348.4 118.8Q347.8 120 346.9 120.9Q345.9 121.8 344.6 122.4Q343.3 122.9 341.8 122.9Q338.8 122.9 336.7 120.9Q334.7 118.9 334.7 116.1Q334.7 114.7 335.2 113.4Q335.7 112.2 336.7 111.3Q337.7 110.4 339 109.8Q340.3 109.2 341.8 109.2Q343.3 109.2 344.6 109.8Q345.9 110.3 346.9 111.2Q347.8 112.1 348.4 113.4Q349 114.6 349 116.1ZM335.6 166V128.2H348V166ZM414.1 166 409.9 155.4H389.1L385.1 166H371L393.6 112.2H406.2L428.5 166ZM399.7 126.6 392.8 145H406.3ZM474.4 146.9Q474.4 150.9 473.2 154.5Q472 158.2 469.7 160.9Q467.4 163.7 464 165.4Q460.7 167.1 456.4 167.1Q452.9 167.1 449.8 165.7Q446.7 164.3 444.9 161.8H444.8V184.2H432.3V128.2H444.2V132.8H444.4Q446.2 130.5 449.2 128.8Q452.3 127.1 456.5 127.1Q460.6 127.1 463.9 128.7Q467.3 130.3 469.6 133Q471.9 135.8 473.2 139.4Q474.4 143 474.4 146.9ZM462.4 146.9Q462.4 145.1 461.8 143.4Q461.2 141.6 460.1 140.3Q459 138.9 457.3 138.1Q455.7 137.3 453.5 137.3Q451.3 137.3 449.7 138.1Q448 138.9 446.8 140.3Q445.6 141.7 445 143.4Q444.3 145.2 444.3 147Q444.3 148.8 445 150.6Q445.6 152.3 446.8 153.7Q448 155.1 449.7 155.9Q451.3 156.7 453.5 156.7Q455.7 156.7 457.3 155.9Q459 155.1 460.1 153.7Q461.2 152.3 461.8 150.5Q462.4 148.7 462.4 146.9ZM524.4 146.9Q524.4 150.9 523.2 154.5Q521.9 158.2 519.6 160.9Q517.3 163.7 514 165.4Q510.6 167.1 506.4 167.1Q502.9 167.1 499.7 165.7Q496.6 164.3 494.9 161.8H494.7V184.2H482.3V128.2H494.1V132.8H494.3Q496.1 130.5 499.2 128.8Q502.3 127.1 506.4 127.1Q510.5 127.1 513.9 128.7Q517.2 130.3 519.5 133Q521.9 135.8 523.1 139.4Q524.4 143 524.4 146.9ZM512.3 146.9Q512.3 145.1 511.7 143.4Q511.1 141.6 510 140.3Q508.9 138.9 507.3 138.1Q505.6 137.3 503.4 137.3Q501.3 137.3 499.6 138.1Q497.9 138.9 496.7 140.3Q495.6 141.7 494.9 143.4Q494.3 145.2 494.3 147Q494.3 148.8 494.9 150.6Q495.6 152.3 496.7 153.7Q497.9 155.1 499.6 155.9Q501.3 156.7 503.4 156.7Q505.6 156.7 507.3 155.9Q508.9 155.1 510 153.7Q511.1 152.3 511.7 150.5Q512.3 148.7 512.3 146.9ZM580.3 126.2Q578.6 124 575.9 122.8Q573.2 121.5 570.7 121.5Q569.4 121.5 568.1 121.8Q566.8 122 565.7 122.6Q564.6 123.3 563.9 124.3Q563.2 125.3 563.2 126.9Q563.2 128.3 563.8 129.2Q564.3 130.1 565.4 130.8Q566.5 131.5 568.1 132.1Q569.6 132.6 571.5 133.2Q574.2 134.2 577.2 135.3Q580.2 136.4 582.6 138.2Q585 140 586.6 142.7Q588.2 145.4 588.2 149.4Q588.2 154.1 586.5 157.4Q584.8 160.8 581.9 163Q579 165.2 575.3 166.3Q571.6 167.4 567.6 167.4Q561.8 167.4 556.4 165.4Q551 163.3 547.5 159.6L556 151Q558 153.4 561.2 155Q564.4 156.7 567.6 156.7Q569.1 156.7 570.4 156.3Q571.8 156 572.8 155.4Q573.8 154.7 574.5 153.5Q575.1 152.4 575.1 150.8Q575.1 149.3 574.3 148.2Q573.5 147.2 572.1 146.3Q570.7 145.4 568.6 144.7Q566.5 144 563.9 143.1Q561.3 142.3 558.8 141.1Q556.4 140 554.4 138.2Q552.5 136.4 551.3 133.9Q550.1 131.3 550.1 127.7Q550.1 123.2 552 120Q553.8 116.8 556.7 114.8Q559.7 112.7 563.4 111.8Q567.2 110.8 571 110.8Q575.5 110.8 580.3 112.5Q585 114.2 588.6 117.4ZM609.6 137.5V151.9Q609.6 154.6 610.7 155.9Q611.7 157.3 614.4 157.3Q615.3 157.3 616.3 157.1Q617.3 157 618 156.7L618.2 165.8Q616.9 166.2 614.9 166.6Q612.9 166.9 610.9 166.9Q607.1 166.9 604.5 166Q602 165 600.4 163.2Q598.8 161.4 598.2 159Q597.5 156.5 597.5 153.5V137.5H591.4V128.2H597.4V118.2H609.6V128.2H618.5V137.5ZM664.5 146.9Q664.5 151.6 662.8 155.3Q661.2 159.1 658.3 161.7Q655.4 164.3 651.6 165.8Q647.8 167.2 643.5 167.2Q639.2 167.2 635.4 165.8Q631.5 164.3 628.7 161.7Q625.8 159.1 624.2 155.3Q622.5 151.6 622.5 146.9Q622.5 142.3 624.2 138.6Q625.8 134.8 628.7 132.3Q631.5 129.7 635.4 128.3Q639.2 126.9 643.5 126.9Q647.8 126.9 651.6 128.3Q655.4 129.7 658.3 132.3Q661.2 134.8 662.8 138.6Q664.5 142.3 664.5 146.9ZM652.5 146.9Q652.5 145.1 651.9 143.4Q651.3 141.6 650.1 140.3Q649 138.9 647.3 138.1Q645.7 137.3 643.5 137.3Q641.3 137.3 639.6 138.1Q637.9 138.9 636.8 140.3Q635.7 141.6 635.1 143.4Q634.6 145.1 634.6 146.9Q634.6 148.7 635.1 150.5Q635.7 152.2 636.8 153.7Q638 155.1 639.7 155.9Q641.3 156.7 643.5 156.7Q645.7 156.7 647.4 155.9Q649.1 155.1 650.2 153.7Q651.4 152.2 651.9 150.5Q652.5 148.7 652.5 146.9ZM697 138.3Q696.1 138.1 695.3 138Q694.5 138 693.8 138Q691.3 138 689.6 138.9Q687.8 139.8 686.8 141.1Q685.8 142.4 685.3 143.9Q684.9 145.4 684.9 146.5V166H672.4V128.2H684.4V133.6H684.6Q686 130.7 688.7 128.9Q691.3 127.1 694.8 127.1Q695.6 127.1 696.3 127.2Q697 127.2 697.5 127.4ZM728.6 142.7Q728.6 139.8 726.7 137.7Q724.9 135.5 721.1 135.5Q719.3 135.5 717.8 136.1Q716.3 136.7 715.1 137.7Q714 138.6 713.3 140Q712.6 141.3 712.5 142.7ZM740.1 147.5Q740.1 148.3 740.1 149.1Q740.1 149.8 740 150.5H712.5Q712.7 152.1 713.5 153.4Q714.3 154.7 715.5 155.6Q716.8 156.6 718.4 157.1Q719.9 157.6 721.6 157.6Q724.6 157.6 726.6 156.5Q728.7 155.4 729.9 153.7L738.6 159.2Q736 163 731.6 165.1Q727.2 167.2 721.4 167.2Q717.2 167.2 713.4 165.9Q709.6 164.6 706.7 162Q703.9 159.5 702.2 155.7Q700.6 152 700.6 147.2Q700.6 142.6 702.2 138.8Q703.8 135.1 706.5 132.4Q709.3 129.8 713 128.4Q716.7 126.9 721.1 126.9Q725.2 126.9 728.7 128.3Q732.2 129.7 734.7 132.4Q737.2 135.1 738.7 138.9Q740.1 142.7 740.1 147.5Z"/><path fill="#c4b5fd"  d="M101 201Q100 200 99 200Q98 199 97 199Q96 199 95 200Q95 200 94 200Q93 201 93 201Q93 202 93 203Q93 204 93 204Q93 205 94 205Q94 205 95 206Q96 206 97 206Q98 207 99 207Q100 207 101 208Q102 209 102 210Q103 211 103 212Q103 214 102 215Q102 216 101 217Q100 218 98 218Q97 219 96 219Q94 219 92 218Q90 217 89 216L91 214Q92 215 93 215Q94 216 96 216Q97 216 97 216Q98 216 99 215Q99 215 100 214Q100 213 100 213Q100 212 100 211Q99 210 99 210Q98 210 97 209Q96 209 95 209Q94 208 93 208Q92 207 91 207Q91 206 90 205Q90 204 90 203Q90 201 90 200Q91 199 92 198Q93 198 94 197Q96 197 97 197Q99 197 100 198Q102 198 103 199ZM117 210Q117 209 117 208Q116 208 116 207Q115 207 115 206Q114 206 113 206Q112 206 111 206Q111 207 110 207Q110 208 109 208Q109 209 109 210ZM120 211Q120 211 120 211Q120 212 120 212H109Q109 213 109 214Q109 214 110 215Q111 215 112 216Q112 216 113 216Q115 216 116 216Q117 215 117 214L119 216Q118 217 117 218Q115 218 113 218Q112 218 110 218Q109 217 108 216Q107 215 107 214Q106 213 106 211Q106 210 106 208Q107 207 108 206Q109 205 110 204Q112 204 113 204Q115 204 116 204Q117 205 118 206Q119 207 119 208Q120 209 120 211ZM126 218H124V196H126ZM137 206H134V218H132V206H129V204H132V201Q132 200 132 199Q132 198 133 197Q133 197 134 196Q135 196 137 196Q138 196 138 196L138 198Q138 198 137 198Q137 198 137 198Q136 198 135 198Q135 199 135 199Q134 200 134 200Q134 201 134 201V204H137ZM146 212H139V210H146ZM152 206Q153 205 154 205Q155 204 156 204Q158 204 159 204Q160 205 160 206Q161 206 161 207Q162 208 162 209V218H159V210Q159 210 159 209Q159 208 158 207Q158 207 157 207Q157 206 156 206Q154 206 153 207Q152 209 152 211V218H149V196H152V206ZM180 211Q180 213 180 214Q179 215 178 216Q177 217 176 218Q174 218 173 218Q171 218 170 218Q168 217 167 216Q166 215 166 214Q165 213 165 211Q165 210 166 208Q166 207 167 206Q168 205 170 204Q171 204 173 204Q174 204 176 204Q177 205 178 206Q179 207 180 208Q180 210 180 211ZM177 211Q177 210 177 209Q177 208 176 208Q176 207 175 207Q174 206 173 206Q172 206 171 207Q170 207 169 208Q169 208 168 209Q168 210 168 211Q168 212 168 213Q169 214 169 215Q170 215 171 216Q172 216 173 216Q174 216 175 216Q176 215 176 215Q177 214 177 213Q177 212 177 211ZM191 208Q191 207 190 207Q189 206 188 206Q188 206 187 206Q187 206 186 206Q186 207 186 207Q186 207 186 208Q186 209 186 209Q187 210 189 210Q190 210 191 210Q191 211 192 211Q193 212 193 212Q193 213 193 214Q193 215 193 216Q192 217 192 217Q191 218 190 218Q189 218 188 218Q186 218 185 218Q183 217 182 216L184 214Q185 215 186 216Q187 216 188 216Q188 216 189 216Q189 216 190 216Q190 216 190 215Q191 215 191 214Q191 213 190 213Q189 212 187 212Q186 212 186 211Q185 211 184 211Q184 210 183 210Q183 209 183 208Q183 207 183 206Q184 205 185 205Q185 204 186 204Q187 204 188 204Q190 204 191 204Q192 205 193 206ZM204 206H200V214Q200 215 200 215Q201 216 202 216Q202 216 203 216Q203 216 203 216L203 218Q203 218 202 218Q202 218 201 218Q199 218 198 217Q197 216 197 214V206H195V204H197V200H200V204H204ZM216 210Q216 209 216 208Q216 208 215 207Q215 207 214 206Q213 206 213 206Q212 206 211 206Q210 207 210 207Q209 208 209 208Q208 209 208 210ZM219 211Q219 211 219 211Q219 212 219 212H208Q208 213 209 214Q209 214 210 215Q210 215 211 216Q212 216 213 216Q214 216 215 216Q216 215 217 214L219 216Q217 217 216 218Q214 218 213 218Q211 218 210 218Q208 217 207 216Q207 215 206 214Q205 213 205 211Q205 210 206 208Q206 207 207 206Q208 205 210 204Q211 204 213 204Q214 204 215 204Q216 205 217 206Q218 207 219 208Q219 209 219 211ZM234 216Q233 217 232 218Q230 218 229 218Q227 218 226 218Q225 217 224 216Q223 215 223 214Q222 213 222 211Q222 210 223 208Q223 207 224 206Q225 205 226 204Q227 204 229 204Q231 204 232 205Q233 205 234 206H234V196H237V218H234V216ZM225 211Q225 212 225 213Q225 214 226 215Q227 215 227 216Q228 216 229 216Q230 216 231 216Q232 215 233 215Q233 214 234 213Q234 212 234 211Q234 210 234 209Q233 208 233 208Q232 207 231 207Q230 206 229 206Q228 206 227 207Q227 207 226 208Q225 208 225 209Q225 210 225 211ZM257 209Q257 208 256 207Q255 206 254 206Q253 206 252 207Q251 207 250 208L248 206Q249 205 251 204Q252 204 254 204Q256 204 257 204Q258 205 258 205Q259 206 259 207Q260 208 260 209V215Q260 216 260 217Q260 218 260 218H258Q257 217 257 216H257Q256 217 255 218Q254 218 253 218Q252 218 251 218Q250 218 249 217Q249 217 248 216Q248 215 248 214Q248 213 248 212Q249 211 251 210Q252 210 254 210Q255 209 257 209ZM256 211Q255 211 254 212Q253 212 252 212Q252 212 251 213Q250 213 250 214Q250 215 251 215Q251 215 251 216Q252 216 252 216Q253 216 253 216Q255 216 256 215Q257 214 257 212V211ZM267 225H264V204H267V206H267Q268 205 269 205Q270 204 272 204Q274 204 275 204Q276 205 277 206Q278 207 278 208Q279 210 279 211Q279 213 278 214Q278 215 277 216Q276 217 275 218Q274 218 272 218Q270 218 269 218Q268 217 267 216H267ZM276 211Q276 210 276 209Q276 208 275 208Q274 207 273 207Q273 206 272 206Q270 206 270 207Q269 207 268 208Q268 208 267 209Q267 210 267 211Q267 212 267 213Q268 214 268 215Q269 215 270 216Q270 216 272 216Q273 216 273 216Q274 215 275 215Q276 214 276 213Q276 212 276 211ZM285 225H283V204H285V206H285Q286 205 287 205Q289 204 290 204Q292 204 293 204Q294 205 295 206Q296 207 297 208Q297 210 297 211Q297 213 297 214Q296 215 295 216Q295 217 293 218Q292 218 290 218Q289 218 288 218Q286 217 286 216H285ZM294 211Q294 210 294 209Q294 208 293 208Q293 207 292 207Q291 206 290 206Q289 206 288 207Q287 207 287 208Q286 208 286 209Q285 210 285 211Q285 212 286 213Q286 214 287 215Q287 215 288 216Q289 216 290 216Q291 216 292 216Q293 215 293 215Q294 214 294 213Q294 212 294 211ZM309 208Q308 207 307 207Q306 206 305 206Q305 206 304 206Q304 206 304 206Q303 207 303 207Q303 207 303 208Q303 209 304 209Q304 210 306 210Q307 210 308 210Q309 211 309 211Q310 212 310 212Q311 213 311 214Q311 215 310 216Q310 217 309 217Q308 218 307 218Q306 218 305 218Q303 218 302 218Q300 217 299 216L301 214Q302 215 303 216Q304 216 305 216Q306 216 306 216Q307 216 307 216Q307 216 308 215Q308 215 308 214Q308 213 307 213Q306 212 304 212Q304 212 303 211Q302 211 302 211Q301 210 301 210Q300 209 300 208Q300 207 301 206Q301 205 302 205Q303 204 303 204Q304 204 305 204Q307 204 308 204Q310 205 310 206ZM315 222H313L315 215H317ZM343 211Q343 213 342 214Q342 215 341 216Q340 217 338 218Q337 218 335 218Q334 218 332 218Q331 217 330 216Q329 215 328 214Q328 213 328 211Q328 210 328 208Q329 207 330 206Q331 205 332 204Q334 204 335 204Q337 204 338 204Q340 205 341 206Q342 207 342 208Q343 210 343 211ZM340 211Q340 210 340 209Q339 208 339 208Q338 207 337 207Q336 206 335 206Q334 206 333 207Q332 207 332 208Q331 208 331 209Q331 210 331 211Q331 212 331 213Q331 214 332 215Q332 215 333 216Q334 216 335 216Q336 216 337 216Q338 215 339 215Q339 214 340 213Q340 212 340 211ZM349 204Q349 205 349 205Q349 206 349 207H349Q349 206 350 205Q350 205 351 205Q351 204 352 204Q353 204 354 204Q355 204 356 204Q357 205 357 206Q358 206 358 207Q359 208 359 209V218H356V210Q356 210 356 209Q356 208 355 207Q355 207 354 207Q354 206 353 206Q351 206 350 207Q349 209 349 211V218H346V207Q346 207 346 206Q346 205 346 204ZM373 210Q373 209 373 208Q373 208 372 207Q372 207 371 206Q370 206 370 206Q369 206 368 206Q367 207 367 207Q366 208 366 208Q365 209 365 210ZM376 211Q376 211 376 211Q376 212 376 212H365Q365 213 366 214Q366 214 367 215Q367 215 368 216Q369 216 370 216Q371 216 372 216Q373 215 374 214L376 216Q374 217 373 218Q372 218 370 218Q368 218 367 218Q365 217 364 216Q364 215 363 214Q362 213 362 211Q362 210 363 208Q364 207 364 206Q365 205 367 204Q368 204 370 204Q371 204 372 204Q374 205 374 206Q375 207 376 208Q376 209 376 211ZM397 208Q396 207 396 207Q395 206 394 206Q393 206 392 207Q391 207 390 208Q390 208 389 209Q389 210 389 211Q389 212 389 213Q390 214 390 215Q391 215 392 216Q393 216 394 216Q395 216 396 216Q396 215 397 215L399 216Q398 217 397 218Q395 218 394 218Q392 218 391 218Q389 217 388 216Q387 215 387 214Q386 213 386 211Q386 210 387 208Q387 207 388 206Q389 205 391 204Q392 204 394 204Q395 204 397 204Q398 205 399 206ZM404 218H402V196H404ZM412 218H409V204H412ZM412 199Q412 200 412 201Q411 201 410 201Q410 201 409 201Q409 200 409 199Q409 199 409 198Q410 198 410 198Q411 198 412 198Q412 199 412 199ZM426 208Q426 207 425 207Q424 206 423 206Q422 206 421 207Q420 207 420 208Q419 208 419 209Q419 210 419 211Q419 212 419 213Q419 214 420 215Q420 215 421 216Q422 216 423 216Q424 216 425 216Q426 215 426 215L428 216Q427 217 426 218Q425 218 423 218Q421 218 420 218Q419 217 418 216Q417 215 416 214Q416 213 416 211Q416 210 416 208Q417 207 418 206Q419 205 420 204Q421 204 423 204Q424 204 426 204Q427 205 428 206ZM434 210H434L440 204H443L437 210L444 218H440L434 211H434V218H431V196H434ZM460 206H457V218H454V206H451V204H454V201Q454 200 454 199Q455 198 455 197Q456 197 457 196Q458 196 459 196Q460 196 461 196L461 198Q460 198 460 198Q460 198 459 198Q458 198 458 198Q457 199 457 199Q457 200 457 200Q457 201 457 201V204H460ZM462 207Q462 207 462 206Q462 205 462 204H465Q465 205 465 205Q465 206 465 207H465Q466 205 467 205Q468 204 469 204Q470 204 470 204L470 207Q470 206 469 206Q468 206 467 207Q467 207 466 208Q466 208 465 209Q465 210 465 211V218H462V207ZM487 211Q487 213 486 214Q486 215 485 216Q484 217 482 218Q481 218 479 218Q478 218 476 218Q475 217 474 216Q473 215 473 214Q472 213 472 211Q472 210 473 208Q473 207 474 206Q475 205 476 204Q478 204 479 204Q481 204 482 204Q484 205 485 206Q486 207 486 208Q487 210 487 211ZM484 211Q484 210 484 209Q483 208 483 208Q482 207 481 207Q481 206 479 206Q478 206 477 207Q477 207 476 208Q475 208 475 209Q475 210 475 211Q475 212 475 213Q475 214 476 215Q477 215 477 216Q478 216 479 216Q481 216 481 216Q482 215 483 215Q483 214 484 213Q484 212 484 211ZM493 207Q494 205 495 205Q496 204 498 204Q499 204 500 205Q501 205 502 207Q503 205 504 205Q505 204 507 204Q508 204 509 204Q510 205 510 206Q511 206 511 207Q512 208 512 209V218H509V210Q509 210 509 209Q509 208 508 207Q508 207 507 207Q507 206 506 206Q505 206 504 207Q504 207 503 208Q503 208 503 209Q502 210 502 211V218H500V210Q500 209 500 208Q499 208 499 207Q499 207 498 206Q498 206 497 206Q495 206 494 207Q493 209 493 211V218H491V207Q491 207 491 206Q491 205 490 204H493Q493 205 493 205Q493 206 493 207H493ZM529 215H529L533 204H536L529 221Q529 222 528 223Q528 223 527 224Q527 224 526 225Q525 225 524 225Q524 225 523 225Q523 225 522 225L523 222Q523 223 524 223Q525 223 526 222Q526 221 527 220L527 218L521 204H525ZM552 211Q552 213 552 214Q551 215 550 216Q549 217 548 218Q546 218 545 218Q543 218 542 218Q540 217 539 216Q538 215 538 214Q537 213 537 211Q537 210 538 208Q538 207 539 206Q540 205 542 204Q543 204 545 204Q546 204 548 204Q549 205 550 206Q551 207 552 208Q552 210 552 211ZM549 211Q549 210 549 209Q549 208 548 208Q548 207 547 207Q546 206 545 206Q544 206 543 207Q542 207 541 208Q541 208 540 209Q540 210 540 211Q540 212 540 213Q541 214 541 215Q542 215 543 216Q544 216 545 216Q546 216 547 216Q548 215 548 215Q549 214 549 213Q549 212 549 211ZM566 218Q566 217 565 217Q565 216 565 216H565Q565 217 564 218Q562 218 561 218Q560 218 559 218Q558 218 557 217Q556 216 556 215Q556 214 556 213V204H558V212Q558 213 559 213Q559 214 559 215Q559 215 560 216Q561 216 562 216Q563 216 564 215Q565 214 565 212V204H568V215Q568 216 568 216Q568 217 568 218ZM573 207Q573 207 573 206Q573 205 573 204H575Q575 205 575 205Q575 206 575 207H575Q576 205 577 205Q578 204 580 204Q580 204 581 204L581 207Q580 206 579 206Q578 206 578 207Q577 207 576 208Q576 208 576 209Q575 210 575 211V218H573V207ZM594 218H591V197H597Q599 197 600 198Q601 198 602 199Q603 199 604 200Q605 202 605 203Q605 205 603 207Q602 208 600 209L605 218H602L597 209H594ZM594 206H597Q598 206 599 206Q600 206 600 206Q601 205 601 205Q602 204 602 203Q602 202 601 202Q601 201 600 201Q600 200 599 200Q598 200 597 200H594ZM618 218Q618 217 618 217Q618 216 618 216H618Q617 217 616 218Q615 218 613 218Q612 218 611 218Q610 218 609 217Q609 216 609 215Q608 214 608 213V204H611V212Q611 213 611 213Q611 214 612 215Q612 215 612 216Q613 216 614 216Q616 216 617 215Q618 214 618 212V204H620V215Q620 216 620 216Q621 217 621 218ZM628 204Q628 205 628 205Q628 206 628 207H628Q628 206 629 205Q629 205 630 205Q630 204 631 204Q632 204 632 204Q634 204 635 204Q636 205 636 206Q637 206 637 207Q637 208 637 209V218H635V210Q635 210 635 209Q634 208 634 207Q634 207 633 207Q633 206 632 206Q630 206 629 207Q628 209 628 211V218H625V207Q625 207 625 206Q625 205 625 204ZM649 206H645V214Q645 215 646 215Q646 216 647 216Q647 216 648 216Q648 216 649 216L649 218Q648 218 648 218Q647 218 646 218Q645 218 643 217Q642 216 642 214V206H640V204H642V200H645V204H649ZM654 218H652V204H654ZM655 199Q655 200 654 201Q654 201 653 201Q652 201 652 201Q651 200 651 199Q651 199 652 198Q652 198 653 198Q654 198 654 198Q655 199 655 199ZM662 225H659V204H662V206H662Q663 205 664 205Q665 204 667 204Q668 204 670 204Q671 205 672 206Q673 207 673 208Q674 210 674 211Q674 213 673 214Q673 215 672 216Q671 217 670 218Q668 218 667 218Q665 218 664 218Q663 217 662 216H662ZM671 211Q671 210 671 209Q670 208 670 208Q669 207 668 207Q667 206 666 206Q665 206 664 207Q664 207 663 208Q662 208 662 209Q662 210 662 211Q662 212 662 213Q662 214 663 215Q664 215 664 216Q665 216 666 216Q667 216 668 216Q669 215 670 215Q670 214 671 213Q671 212 671 211ZM680 218H678V204H680ZM681 199Q681 200 680 201Q680 201 679 201Q678 201 678 201Q677 200 677 199Q677 199 678 198Q678 198 679 198Q680 198 680 198Q681 199 681 199ZM688 216Q688 217 688 218Q687 218 686 218Q686 218 685 218Q685 217 685 216Q685 216 685 215Q686 214 686 214Q687 214 688 215Q688 215 688 216Z"/></svg>
